HIERARCHY
ROOT Hips
{
	OFFSET -0.001795 -0.223333 0.028219
	CHANNELS 6 Xposition Yposition Zposition Zrotation Yrotation Xrotation 
	JOINT LeftUpLeg
	{
		OFFSET 0.069520 -0.091406 -0.006815
		CHANNELS 3 Zrotation Yrotation Xrotation
		JOINT LeftLeg
		{
			OFFSET 0.034277 -0.375199 -0.004496
			CHANNELS 3 Zrotation Yrotation Xrotation
			JOINT LeftFoot
			{
				OFFSET -0.013596 -0.397961 -0.043693
				CHANNELS 3 Zrotation Yrotation Xrotation
				JOINT LeftToe
				{
					OFFSET 0.026358 -0.055791 0.119288
					CHANNELS 3 Zrotation Yrotation Xrotation
					End Site
					{
						OFFSET 0.000000 0.000000 0.000000
					}
				}
			}
		}
	}
	JOINT RightUpLeg
	{
		OFFSET -0.067670 -0.090522 -0.004320
		CHANNELS 3 Zrotation Yrotation Xrotation
		JOINT RightLeg
		{
			OFFSET -0.038290 -0.382569 -0.008850
			CHANNELS 3 Zrotation Yrotation Xrotation
			JOINT RightFoot
			{
				OFFSET 0.015774 -0.398415 -0.042312
				CHANNELS 3 Zrotation Yrotation Xrotation
				JOINT RightToe
				{
					OFFSET -0.025372 -0.048144 0.123348
					CHANNELS 3 Zrotation Yrotation Xrotation
					End Site
					{
						OFFSET 0.000000 0.000000 0.000000
					}
				}
			}
		}
	}
	JOINT Spine
	{
		OFFSET -0.002533 0.108963 -0.026696
		CHANNELS 3 Zrotation Yrotation Xrotation
		JOINT Spine1
		{
			OFFSET 0.005487 0.135180 0.001092
			CHANNELS 3 Zrotation Yrotation Xrotation
			JOINT Spine2
			{
				OFFSET 0.001457 0.052922 0.025425
				CHANNELS 3 Zrotation Yrotation Xrotation
				JOINT Neck
				{
					OFFSET -0.002778 0.213870 -0.042857
					CHANNELS 3 Zrotation Yrotation Xrotation
					JOINT Head
					{
						OFFSET 0.005152 0.064970 0.051349
						CHANNELS 3 Zrotation Yrotation Xrotation
						End Site
						{
							OFFSET 0.000000 0.000000 0.000000
						}
					}
				}
				JOINT LeftShoulder
				{
					OFFSET 0.078845 0.121749 -0.034090
					CHANNELS 3 Zrotation Yrotation Xrotation
					JOINT LeftArm
					{
						OFFSET 0.090977 0.030469 -0.008868
						CHANNELS 3 Zrotation Yrotation Xrotation
						JOINT LeftForeArm
						{
							OFFSET 0.259612 -0.012772 -0.027456
							CHANNELS 3 Zrotation Yrotation Xrotation
							JOINT LeftHand
							{
								OFFSET 0.249234 0.008986 -0.001171
								CHANNELS 3 Zrotation Yrotation Xrotation
								End Site
								{
									OFFSET 0.000000 0.000000 0.000000
								}
							}
						}
					}
				}
				JOINT RightShoulder
				{
					OFFSET -0.081759 0.118833 -0.038615
					CHANNELS 3 Zrotation Yrotation Xrotation
					JOINT RightArm
					{
						OFFSET -0.096012 0.032551 -0.009143
						CHANNELS 3 Zrotation Yrotation Xrotation
						JOINT RightForeArm
						{
							OFFSET -0.253742 -0.013329 -0.021401
							CHANNELS 3 Zrotation Yrotation Xrotation
							JOINT RightHand
							{
								OFFSET -0.255298 0.007772 -0.005559
								CHANNELS 3 Zrotation Yrotation Xrotation
								End Site
								{
									OFFSET 0.000000 0.000000 0.000000
								}
							}
						}
					}
				}
			}
		}
	}
}
MOTION
Frames: 12
Frame Time: 0.050000
0.000000 0.930847 0.000000 0.189918 -6.643819 -3.526805 4.313938 0.269390 3.603685 -4.214644 0.559706 3.127849 4.337692 9.876739 3.534566 0.000000 0.000000 0.000000 -7.016810 0.251303 -0.744129 4.067370 -0.310201 6.159525 -2.396865 -7.149699 2.745503 0.000000 0.000000 0.000000 5.343495 -1.013666 13.017667 -6.138761 2.056951 -22.608008 -3.098325 7.071676 24.291262 11.602028 -3.401294 -32.407319 0.000000 0.000000 0.000000 -21.185264 -17.279986 7.535493 -47.108743 -11.810108 -2.844544 -10.530061 -29.453023 3.943470 0.000000 0.000000 0.000000 28.939681 5.333696 2.778979 51.249430 14.462358 -1.423046 11.163603 30.385421 4.429158 0.000000 0.000000 0.000000 
0.000126 0.932049 -0.001084 0.375233 -7.240766 -3.107045 4.163936 0.287919 3.790354 -4.080500 0.530417 1.395478 4.323304 9.941234 4.212419 0.000000 0.000000 0.000000 -7.359069 0.276123 -0.617121 3.603729 -0.252248 5.255439 -1.933662 -6.410031 3.429484 0.000000 0.000000 0.000000 5.480005 -1.028893 13.088507 -6.824977 2.239067 -22.244830 -3.141086 6.866687 22.920119 12.215885 -3.538493 -33.465930 0.000000 0.000000 0.000000 -20.878034 -17.859302 7.936286 -45.661816 -14.271304 -1.779558 -9.950071 -32.811156 4.254898 0.000000 0.000000 0.000000 28.069322 6.838517 3.476491 51.320260 18.674009 0.623645 10.522384 33.475256 4.728125 0.000000 0.000000 0.000000 
0.000437 0.932020 -0.002720 0.668161 -6.715439 -3.403578 3.872418 0.289880 3.782526 -4.446050 0.579720 1.562393 4.638975 10.530636 3.989851 0.000000 0.000000 0.000000 -7.779675 0.289538 -1.112363 4.076886 -0.301863 6.711180 -2.180803 -7.245427 4.156286 0.000000 0.000000 0.000000 5.356662 -1.041619 13.423669 -6.222724 2.064532 -23.172421 -3.698051 7.505760 23.071070 12.528650 -3.666154 -33.139042 0.000000 0.000000 0.000000 -20.033658 -19.779797 8.648421 -43.141450 -18.649877 -0.203425 -8.006566 -37.985065 4.233403 0.000000 0.000000 0.000000 27.237014 9.052657 5.243915 48.475031 24.350969 2.642330 8.780073 38.997716 5.119523 0.000000 0.000000 0.000000 
0.000482 0.932056 -0.004251 0.634469 -6.465633 -4.358624 3.747658 0.363424 4.720300 -4.178926 0.537175 1.272544 4.590150 10.406460 3.705062 0.000000 0.000000 0.000000 -7.884636 0.251682 -0.475280 4.221405 -0.320940 7.286037 -2.167948 -7.086546 3.856085 0.000000 0.000000 0.000000 5.662205 -1.111829 14.126821 -6.748256 2.224968 -22.980029 -3.920658 8.030424 22.640631 13.029554 -3.610795 -34.160757 0.000000 0.000000 0.000000 -18.264011 -21.958676 9.378428 -40.448523 -21.858078 0.844280 -3.794261 -44.588694 3.185972 0.000000 0.000000 0.000000 26.379148 10.274733 6.203296 45.604810 29.158004 4.175425 3.419565 43.674259 3.818384 0.000000 0.000000 0.000000 
0.000622 0.931882 -0.005525 0.567369 -5.967627 -4.948364 3.724061 0.385824 5.050997 -3.777506 0.477860 1.612155 4.479333 10.186561 3.608008 0.000000 0.000000 0.000000 -7.996466 0.225161 -0.195675 4.504590 -0.363054 8.250951 -2.414275 -7.601775 3.822948 0.000000 0.000000 0.000000 5.719136 -1.144718 14.507579 -6.736594 2.244931 -22.723340 -4.142685 8.464805 21.830446 13.479909 -3.871657 -33.187562 0.000000 0.000000 0.000000 -16.351124 -23.010142 9.451547 -38.755593 -24.696111 1.711040 3.154761 -50.457634 0.229434 0.000000 0.000000 0.000000 24.957185 11.005530 6.757612 44.019243 32.974644 5.452666 -3.820855 46.693060 1.212117 0.000000 0.000000 0.000000 
0.000890 0.931661 -0.006303 0.438559 -5.376402 -5.053473 3.863538 0.369282 4.986473 -4.084645 0.517672 2.018106 4.339813 9.824576 3.044774 0.000000 0.000000 0.000000 -7.766329 0.202108 -0.162965 4.455414 -0.360983 8.742822 -2.531433 -7.518202 2.964292 0.000000 0.000000 0.000000 5.683461 -1.163852 14.659609 -6.358668 2.136361 -23.325049 -4.222230 8.375668 22.443140 13.367922 -3.810117 -33.200877 0.000000 0.000000 0.000000 -16.018840 -22.811992 9.267612 -37.817812 -25.475426 1.810997 8.635123 -54.075175 -2.588489 0.000000 0.000000 0.000000 23.694635 11.523573 7.023810 43.217378 34.749979 5.950000 -9.311376 49.990991 -1.031206 0.000000 0.000000 0.000000 
0.001375 0.932135 -0.006547 0.295308 -4.787774 -4.949208 3.784055 0.339704 4.655022 -3.887638 0.483808 2.221907 4.268279 9.685426 3.039274 0.000000 0.000000 0.000000 -7.375486 0.180563 -0.149594 4.213662 -0.329325 8.918514 -2.470822 -7.264438 2.692510 0.000000 0.000000 0.000000 5.784960 -1.158009 14.242801 -6.412951 2.180070 -22.614058 -4.119973 8.054016 22.160882 13.410276 -3.879185 -32.840098 0.000000 0.000000 0.000000 -15.698795 -22.601315 9.104652 -37.778035 -24.845276 1.644717 10.530135 -56.027634 -3.735895 0.000000 0.000000 0.000000 23.682454 10.859903 6.644532 43.591233 34.161979 5.822288 -9.936128 52.701165 -1.295869 0.000000 0.000000 0.000000 
0.001924 0.932313 -0.006168 0.260632 -4.614143 -4.571249 3.661867 0.299927 4.098229 -3.896366 0.484100 2.507943 4.033619 9.154901 2.694666 0.000000 0.000000 0.000000 -7.186576 0.180526 -0.196273 4.077322 -0.312888 8.629618 -2.467334 -7.088662 2.268043 0.000000 0.000000 0.000000 5.535943 -1.083256 13.503056 -5.874751 2.049650 -22.089020 -4.201781 7.700719 21.972448 13.203795 -3.828056 -32.655224 0.000000 0.000000 0.000000 -16.710619 -21.434176 8.686791 -39.006508 -21.918187 0.861132 6.929272 -56.408423 -1.751013 0.000000 0.000000 0.000000 24.688783 9.906976 6.093832 44.175821 30.428673 4.466478 -2.781655 54.085475 2.193039 0.000000 0.000000 0.000000 
0.002381 0.932135 -0.005501 0.308846 -4.273533 -4.210668 3.682330 0.283971 3.983307 -3.955801 0.487741 2.303368 3.801629 8.606642 2.267157 0.000000 0.000000 0.000000 -6.944581 0.170464 -0.081415 3.464839 -0.230171 7.714855 -2.133625 -6.277891 2.187681 0.000000 0.000000 0.000000 5.448539 -1.045509 12.975305 -5.934874 2.068219 -22.109130 -3.758694 7.424479 22.306596 13.137389 -3.824815 -32.643143 0.000000 0.000000 0.000000 -18.234450 -20.517299 8.396071 -39.883838 -18.078794 -0.298284 -1.728208 -52.872059 2.719876 0.000000 0.000000 0.000000 26.446536 7.980336 5.041583 44.747043 25.460699 2.538318 7.505208 53.131677 7.180341 0.000000 0.000000 0.000000 
0.002572 0.931681 -0.004896 0.416905 -4.049908 -4.055317 3.450228 0.276899 3.846518 -3.761251 0.457593 2.348605 3.555486 8.154533 2.437632 0.000000 0.000000 0.000000 -6.957904 0.165664 0.027313 3.249013 -0.207340 7.220691 -2.175489 -6.373975 2.192279 0.000000 0.000000 0.000000 5.528226 -1.022973 12.515267 -5.693182 2.024473 -21.335918 -4.059683 7.313304 22.282578 12.848925 -3.521402 -33.393459 0.000000 0.000000 0.000000 -19.001726 -19.342337 7.821076 -41.939668 -14.328809 -1.479512 -8.386873 -45.938996 5.169454 0.000000 0.000000 0.000000 27.957792 6.379796 4.143778 45.790339 20.757534 0.795253 15.095221 47.819170 9.624557 0.000000 0.000000 0.000000 
0.002481 0.931218 -0.004520 0.619051 -3.970212 -3.936458 3.360743 0.265145 3.664473 -3.846301 0.470135 2.704014 3.525243 8.049258 2.242191 0.000000 0.000000 0.000000 -7.044490 0.167160 0.081239 3.186288 -0.203730 6.928744 -2.168971 -6.231039 1.880186 0.000000 0.000000 0.000000 5.580845 -1.026231 12.457901 -5.983928 2.097088 -21.681514 -3.791778 7.163029 22.998035 12.832464 -3.558545 -33.446424 0.000000 0.000000 0.000000 -20.036532 -18.632149 7.576517 -42.761482 -11.080906 -2.636137 -11.891195 -37.733245 5.394906 0.000000 0.000000 0.000000 29.281740 4.998089 3.277057 47.119086 16.375227 -0.904613 17.901861 40.380771 8.872998 0.000000 0.000000 0.000000 
0.002253 0.930703 -0.004454 0.853648 -4.086291 -3.910630 3.024129 0.269649 3.589768 -3.748763 0.458216 3.010610 3.392311 7.751993 2.111474 0.000000 0.000000 0.000000 -7.228302 0.170146 0.244180 3.067457 -0.183933 6.890000 -2.077286 -5.955768 1.734679 0.000000 0.000000 0.000000 5.522891 -1.031841 12.635101 -5.926196 2.076187 -21.784332 -3.710195 7.130451 23.150939 12.565527 -3.300965 -34.261841 0.000000 0.000000 0.000000 -20.444161 -17.336017 6.932146 -43.578335 -8.489880 -3.582924 -14.193233 -31.629757 5.131516 0.000000 0.000000 0.000000 30.511047 3.735401 2.420465 48.113072 12.627089 -2.374758 17.612055 33.693530 7.059895 0.000000 0.000000 0.000000 
